<?xml version="1.0" standalone="no"?>
<!DOCTYPE svg PUBLIC "-//W3C//DTD SVG 20010904//EN"
 "http://www.w3.org/TR/2001/REC-SVG-20010904/DTD/svg10.dtd">
<svg version="1.0" xmlns="http://www.w3.org/2000/svg"
 width="626.000000pt" height="626.000000pt" viewBox="0 0 626.000000 626.000000"
 preserveAspectRatio="xMidYMid meet">

<g transform="translate(0.000000,626.000000) scale(0.100000,-0.100000)"
fill="#000000" stroke="none">
<path d="M747 4663 c-4 -3 -7 -622 -7 -1374 0 -1083 3 -1370 13 -1376 6 -4
498 -8 1092 -8 l1080 0 33 -23 c27 -20 32 -29 32 -66 0 -80 25 -76 -509 -76
l-471 0 -31 -48 c-17 -27 -29 -57 -27 -72 l3 -25 1188 -3 1187 -2 0 22 c0 13
-14 47 -30 76 l-30 52 -479 0 c-402 0 -480 2 -490 14 -7 8 -11 36 -9 62 3 43
7 50 38 69 35 20 49 20 1110 25 l1075 5 3 1355 c1 745 0 1365 -3 1378 l-5 22
-2379 0 c-1308 0 -2381 -3 -2384 -7z m483 -20 c-26 -18 -55 -21 -268 -26 -111
-3 -146 -7 -153 -18 -5 -8 -9 -51 -9 -95 0 -78 -6 -94 -36 -94 -2 0 -4 56 -4
125 l0 125 247 0 c235 0 246 -1 223 -17z m1970 -2803 c47 -6 39 -7 -57 -9 -70
0 -113 3 -113 9 0 11 88 12 170 0z"/>
</g>
</svg>
